<svg xmlns="http://www.w3.org/2000/svg" width="1116" height="838.667" preserveAspectRatio="xMidYMid meet" version="1.0" viewBox="0 0 837 629"><g fill="#000" stroke="none"><path d="M4172 5268 c-7 -7 -12 -41 -12 -85 0 -51 -4 -75 -12 -77 -7 -2 -65 -13 -128 -25 -312 -60 -713 -251 -867 -414 -57 -60 -64 -84 -33 -112 22 -20 117 -26 183 -12 l37 8 0 -650 0 -650 -72 -47 c-252 -163 -428 -352 -539 -579 -140 -288 -168 -604 -75 -861 64 -174 210 -351 373 -447 93 -56 264 -119 384 -142 189 -36 436 -29 647 19 l102 23 0 -88 c0 -65 4 -90 15 -99 31 -26 44 5 47 108 3 92 4 96 28 103 117 34 214 70 325 119 199 88 674 319 732 356 86 55 81 92 -16 112 -45 10 -197 1 -233 -13 -17 -7 -18 26 -18 602 l0 610 63 49 c239 187 402 384 513 619 64 135 86 226 86 365 0 141 -23 234 -88 369 -61 127 -114 200 -226 306 -277 265 -627 393 -1048 383 l-125 -2 -5 78 c-5 79 -15 97 -38 74z m453 -249 c430 -85 747 -313 905 -652 52 -110 72 -200 73 -317 0 -97 -17 -186 -51 -261 l-17 -39 -390 316 c-214 174 -469 379 -565 457 -96 78 -219 177 -273 221 l-98 79 3 106 3 106 55 6 c84 10 243 0 355 -22z m-465 -779 l0 -789 -37 25 c-35 24 -45 26 -113 21 -94 -6 -196 -39 -418 -133 -95 -41 -175 -74 -177 -74 -3 0 -5 292 -5 649 l0 648 38 26 c20 13 93 73 162 132 202 173 301 230 455 265 44 10 83 19 88 19 4 1 7 -354 7 -789z m261 360 c106 -85 245 -198 309 -250 65 -52 266 -216 449 -363 182 -148 331 -274 331 -281 0 -42 -175 -264 -279 -354 -197 -169 -382 -259 -692 -337 -176 -44 -242 -69 -285 -107 l-34 -30 0 533 c0 294 -3 718 -7 943 -5 304 -3 408 5 405 6 -2 98 -74 203 -159z m-261 -2151 l0 -820 -152 123 c-84 68 -377 305 -651 527 l-497 402 42 61 c158 226 418 389 723 454 39 9 160 20 269 25 168 7 204 12 230 28 17 11 32 20 34 20 1 1 2 -368 2 -820z m800 -81 l-1 -603 -215 -140 c-118 -77 -245 -157 -282 -177 -65 -37 -210 -98 -232 -98 -7 0 -10 213 -10 659 l0 660 33 -5 c49 -8 156 21 278 75 117 52 306 155 374 202 22 15 43 28 48 29 4 0 7 -271 7 -602z m-1915 111 c110 -89 406 -328 658 -532 l457 -370 0 -127 0 -127 -77 -16 c-155 -33 -231 -41 -403 -40 -189 0 -291 16 -448 69 -225 75 -387 215 -465 400 -82 193 -93 425 -32 651 24 90 91 253 104 253 4 0 96 -73 206 -161z" transform="translate(0.000000,629.000000) scale(0.100000,-0.100000)"/></g></svg>